<svg xmlns="http://www.w3.org/2000/svg" xmlns:xlink="http://www.w3.org/1999/xlink" width="500" zoomAndPan="magnify" viewBox="0 0 375 374.999991" height="500" preserveAspectRatio="xMidYMid meet" version="1.0"><defs><g/><clipPath id="be1bca7b82"><path d="M 116.226562 148.820312 L 249.726562 148.820312 L 249.726562 247.820312 L 116.226562 247.820312 Z M 116.226562 148.820312 " clip-rule="nonzero"/></clipPath></defs><g clip-path="url(#be1bca7b82)"><path fill="#282a29" d="M 165.707031 160.140625 L 165.496094 196.671875 L 165.386719 215.265625 L 165.386719 215.269531 C 165.183594 218.273438 164.6875 220.984375 163.890625 223.394531 C 163.875 223.449219 163.855469 223.5 163.839844 223.554688 C 163.375 224.925781 162.664062 226.277344 161.707031 227.585938 C 160.953125 228.621094 160.054688 229.636719 159 230.636719 C 157.199219 232.339844 155.214844 233.550781 153.054688 234.269531 C 152.785156 234.359375 152.511719 234.441406 152.242188 234.519531 C 150.34375 235.046875 148.433594 235.226562 146.511719 235.050781 C 144.316406 234.855469 142.164062 234.238281 140.050781 233.207031 C 137.933594 232.175781 136.023438 230.757812 134.320312 228.957031 L 134.207031 228.835938 C 132.503906 227.039062 131.207031 225.0625 130.3125 222.910156 C 129.417969 220.765625 128.941406 218.578125 128.886719 216.355469 C 128.832031 214.136719 129.234375 211.972656 130.085938 209.871094 C 130.945312 207.773438 132.253906 205.894531 134.015625 204.226562 C 136.136719 202.222656 138.445312 200.832031 140.9375 200.066406 C 141.304688 199.953125 141.679688 199.847656 142.054688 199.753906 L 142.054688 211.941406 L 153.644531 201.445312 L 153.878906 171.328125 L 142.050781 182.515625 L 142.054688 186.945312 C 140.527344 187.222656 139.007812 187.632812 137.503906 188.195312 C 135.652344 188.882812 133.761719 189.832031 131.839844 191.046875 C 129.917969 192.257812 127.972656 193.792969 126.011719 195.644531 C 122.773438 198.710938 120.351562 202.085938 118.75 205.757812 C 117.148438 209.4375 116.324219 213.171875 116.277344 216.972656 C 116.226562 220.769531 116.90625 224.488281 118.300781 228.132812 C 119.703125 231.769531 121.820312 235.097656 124.660156 238.097656 L 124.773438 238.214844 C 127.613281 241.21875 130.820312 243.527344 134.394531 245.144531 C 137.976562 246.765625 141.644531 247.636719 145.398438 247.761719 C 149.160156 247.886719 152.882812 247.257812 156.585938 245.878906 C 158.113281 245.3125 159.582031 244.617188 161.003906 243.78125 C 163.03125 242.605469 164.949219 241.15625 166.757812 239.441406 C 168.800781 237.511719 170.480469 235.601562 171.796875 233.707031 C 172.382812 232.867188 172.914062 232.019531 173.386719 231.164062 C 173.410156 231.125 173.433594 231.082031 173.457031 231.039062 C 174.023438 230.011719 174.503906 228.972656 174.910156 227.917969 C 175.664062 225.957031 176.1875 223.960938 176.476562 221.945312 C 176.546875 221.4375 176.617188 220.921875 176.667969 220.402344 C 176.824219 218.859375 176.902344 217.277344 176.886719 215.644531 L 177.046875 204.269531 L 177.046875 204.175781 L 177.53125 148.953125 Z M 188.289062 247.777344 L 188.773438 192.554688 L 188.773438 192.460938 L 188.9375 181.085938 C 188.921875 179.453125 188.996094 177.871094 189.15625 176.328125 C 189.207031 175.808594 189.273438 175.292969 189.347656 174.785156 C 189.632812 172.769531 190.160156 170.773438 190.910156 168.8125 C 191.316406 167.757812 191.800781 166.71875 192.367188 165.691406 C 192.386719 165.648438 192.410156 165.605469 192.433594 165.566406 C 192.90625 164.710938 193.441406 163.863281 194.023438 163.023438 C 195.34375 161.128906 197.023438 159.21875 199.0625 157.289062 C 200.875 155.574219 202.792969 154.125 204.816406 152.949219 C 206.242188 152.113281 207.707031 151.417969 209.234375 150.851562 C 212.9375 149.472656 216.664062 148.84375 220.421875 148.96875 C 224.175781 149.09375 227.84375 149.964844 231.425781 151.585938 C 235 153.203125 238.210938 155.511719 241.050781 158.515625 L 241.164062 158.632812 C 244 161.632812 246.121094 164.960938 247.519531 168.597656 C 248.917969 172.242188 249.59375 175.960938 249.546875 179.757812 C 249.5 183.558594 248.671875 187.292969 247.074219 190.972656 C 245.472656 194.644531 243.050781 198.019531 239.808594 201.085938 C 237.847656 202.9375 235.90625 204.472656 233.984375 205.683594 C 232.058594 206.898438 230.171875 207.847656 228.320312 208.535156 C 226.816406 209.097656 225.296875 209.507812 223.769531 209.785156 L 223.769531 214.214844 L 211.941406 225.402344 L 212.179688 195.285156 L 223.765625 184.789062 L 223.769531 196.976562 C 224.144531 196.882812 224.515625 196.777344 224.882812 196.664062 C 227.375 195.894531 229.683594 194.507812 231.804688 192.503906 C 233.566406 190.835938 234.878906 188.957031 235.734375 186.859375 C 236.589844 184.757812 236.992188 182.59375 236.9375 180.375 C 236.878906 178.152344 236.402344 175.964844 235.511719 173.820312 C 234.617188 171.667969 233.316406 169.695312 231.613281 167.894531 L 231.5 167.773438 C 229.796875 165.972656 227.886719 164.554688 225.773438 163.523438 C 223.65625 162.492188 221.503906 161.875 219.308594 161.679688 C 217.386719 161.503906 215.476562 161.683594 213.582031 162.210938 C 213.308594 162.289062 213.039062 162.371094 212.769531 162.460938 C 210.609375 163.179688 208.625 164.390625 206.824219 166.09375 C 205.769531 167.09375 204.867188 168.109375 204.117188 169.144531 C 203.15625 170.453125 202.445312 171.804688 201.984375 173.175781 C 201.964844 173.230469 201.949219 173.28125 201.929688 173.335938 C 201.132812 175.746094 200.636719 178.457031 200.4375 181.460938 L 200.433594 181.464844 L 200.328125 200.058594 L 200.113281 236.589844 L 188.289062 247.777344 " fill-opacity="1" fill-rule="nonzero"/></g><g fill="#000000" fill-opacity="1"><g transform="translate(182.913566, 198.19982)"><g><path d="M 0.234375 0 L 0.171875 0 L 0.171875 -0.484375 L 0.015625 -0.484375 L 0.015625 -0.53125 L 0.40625 -0.53125 L 0.40625 -0.484375 L 0.234375 -0.484375 Z M 0.234375 0 "/></g></g><g transform="translate(183.328483, 198.19982)"><g><path d="M 0.3125 0 L 0.296875 -0.0625 C 0.273438 -0.03125 0.253906 -0.0078125 0.234375 0 C 0.210938 0.0078125 0.1875 0.015625 0.15625 0.015625 C 0.125 0.015625 0.09375 0.00390625 0.0625 -0.015625 C 0.0390625 -0.046875 0.03125 -0.078125 0.03125 -0.109375 C 0.03125 -0.191406 0.0976562 -0.234375 0.234375 -0.234375 L 0.296875 -0.25 L 0.296875 -0.265625 C 0.296875 -0.296875 0.285156 -0.316406 0.265625 -0.328125 C 0.253906 -0.347656 0.234375 -0.359375 0.203125 -0.359375 C 0.171875 -0.359375 0.132812 -0.347656 0.09375 -0.328125 L 0.078125 -0.375 C 0.0976562 -0.382812 0.117188 -0.390625 0.140625 -0.390625 C 0.160156 -0.398438 0.179688 -0.40625 0.203125 -0.40625 C 0.265625 -0.40625 0.300781 -0.394531 0.3125 -0.375 C 0.332031 -0.351562 0.34375 -0.316406 0.34375 -0.265625 L 0.34375 0 Z M 0.171875 -0.046875 C 0.210938 -0.046875 0.242188 -0.0546875 0.265625 -0.078125 C 0.285156 -0.0976562 0.296875 -0.125 0.296875 -0.15625 L 0.296875 -0.203125 L 0.234375 -0.203125 C 0.179688 -0.191406 0.144531 -0.179688 0.125 -0.171875 C 0.101562 -0.160156 0.09375 -0.140625 0.09375 -0.109375 C 0.09375 -0.0859375 0.0976562 -0.0703125 0.109375 -0.0625 C 0.128906 -0.0507812 0.148438 -0.046875 0.171875 -0.046875 Z M 0.171875 -0.046875 "/></g></g><g transform="translate(183.745597, 198.19982)"><g><path d="M 0.578125 0 L 0.578125 -0.25 C 0.578125 -0.28125 0.566406 -0.300781 0.546875 -0.3125 C 0.535156 -0.332031 0.515625 -0.34375 0.484375 -0.34375 C 0.453125 -0.34375 0.425781 -0.332031 0.40625 -0.3125 C 0.394531 -0.300781 0.390625 -0.269531 0.390625 -0.21875 L 0.390625 0 L 0.3125 0 L 0.3125 -0.25 C 0.3125 -0.28125 0.304688 -0.300781 0.296875 -0.3125 C 0.285156 -0.332031 0.265625 -0.34375 0.234375 -0.34375 C 0.191406 -0.34375 0.160156 -0.332031 0.140625 -0.3125 C 0.128906 -0.300781 0.125 -0.265625 0.125 -0.203125 L 0.125 0 L 0.0625 0 L 0.0625 -0.390625 L 0.109375 -0.390625 L 0.125 -0.34375 C 0.132812 -0.363281 0.148438 -0.378906 0.171875 -0.390625 C 0.191406 -0.398438 0.21875 -0.40625 0.25 -0.40625 C 0.3125 -0.40625 0.347656 -0.382812 0.359375 -0.34375 L 0.375 -0.34375 C 0.382812 -0.363281 0.398438 -0.378906 0.421875 -0.390625 C 0.441406 -0.398438 0.46875 -0.40625 0.5 -0.40625 C 0.550781 -0.40625 0.582031 -0.394531 0.59375 -0.375 C 0.613281 -0.351562 0.625 -0.3125 0.625 -0.25 L 0.625 0 Z M 0.578125 0 "/></g></g><g transform="translate(184.443229, 198.19982)"><g><path d="M 0.25 -0.40625 C 0.300781 -0.40625 0.34375 -0.382812 0.375 -0.34375 C 0.40625 -0.3125 0.421875 -0.265625 0.421875 -0.203125 C 0.421875 -0.140625 0.40625 -0.0859375 0.375 -0.046875 C 0.34375 -0.00390625 0.300781 0.015625 0.25 0.015625 C 0.21875 0.015625 0.191406 0.0078125 0.171875 0 C 0.160156 -0.0078125 0.144531 -0.0234375 0.125 -0.046875 L 0.109375 -0.046875 L 0.109375 0 L 0.0625 0 L 0.0625 -0.578125 L 0.125 -0.578125 L 0.125 -0.4375 C 0.125 -0.40625 0.117188 -0.375 0.109375 -0.34375 L 0.125 -0.34375 C 0.144531 -0.382812 0.1875 -0.40625 0.25 -0.40625 Z M 0.25 -0.34375 C 0.195312 -0.34375 0.160156 -0.332031 0.140625 -0.3125 C 0.128906 -0.289062 0.125 -0.253906 0.125 -0.203125 C 0.125 -0.140625 0.132812 -0.0976562 0.15625 -0.078125 C 0.175781 -0.0546875 0.207031 -0.046875 0.25 -0.046875 C 0.28125 -0.046875 0.300781 -0.0546875 0.3125 -0.078125 C 0.332031 -0.109375 0.34375 -0.148438 0.34375 -0.203125 C 0.34375 -0.253906 0.332031 -0.289062 0.3125 -0.3125 C 0.300781 -0.332031 0.28125 -0.34375 0.25 -0.34375 Z M 0.25 -0.34375 "/></g></g><g transform="translate(184.902823, 198.19982)"><g><path d="M 0.3125 0 L 0.296875 -0.0625 C 0.273438 -0.03125 0.253906 -0.0078125 0.234375 0 C 0.210938 0.0078125 0.1875 0.015625 0.15625 0.015625 C 0.125 0.015625 0.09375 0.00390625 0.0625 -0.015625 C 0.0390625 -0.046875 0.03125 -0.078125 0.03125 -0.109375 C 0.03125 -0.191406 0.0976562 -0.234375 0.234375 -0.234375 L 0.296875 -0.25 L 0.296875 -0.265625 C 0.296875 -0.296875 0.285156 -0.316406 0.265625 -0.328125 C 0.253906 -0.347656 0.234375 -0.359375 0.203125 -0.359375 C 0.171875 -0.359375 0.132812 -0.347656 0.09375 -0.328125 L 0.078125 -0.375 C 0.0976562 -0.382812 0.117188 -0.390625 0.140625 -0.390625 C 0.160156 -0.398438 0.179688 -0.40625 0.203125 -0.40625 C 0.265625 -0.40625 0.300781 -0.394531 0.3125 -0.375 C 0.332031 -0.351562 0.34375 -0.316406 0.34375 -0.265625 L 0.34375 0 Z M 0.171875 -0.046875 C 0.210938 -0.046875 0.242188 -0.0546875 0.265625 -0.078125 C 0.285156 -0.0976562 0.296875 -0.125 0.296875 -0.15625 L 0.296875 -0.203125 L 0.234375 -0.203125 C 0.179688 -0.191406 0.144531 -0.179688 0.125 -0.171875 C 0.101562 -0.160156 0.09375 -0.140625 0.09375 -0.109375 C 0.09375 -0.0859375 0.0976562 -0.0703125 0.109375 -0.0625 C 0.128906 -0.0507812 0.148438 -0.046875 0.171875 -0.046875 Z M 0.171875 -0.046875 "/></g></g><g transform="translate(185.319937, 198.19982)"><g><path d="M 0.34375 0 L 0.34375 -0.25 C 0.34375 -0.28125 0.332031 -0.300781 0.3125 -0.3125 C 0.300781 -0.332031 0.28125 -0.34375 0.25 -0.34375 C 0.207031 -0.34375 0.175781 -0.332031 0.15625 -0.3125 C 0.132812 -0.300781 0.125 -0.265625 0.125 -0.203125 L 0.125 0 L 0.0625 0 L 0.0625 -0.578125 L 0.125 -0.578125 L 0.125 -0.390625 C 0.125 -0.367188 0.117188 -0.351562 0.109375 -0.34375 L 0.125 -0.34375 C 0.132812 -0.363281 0.148438 -0.378906 0.171875 -0.390625 C 0.191406 -0.398438 0.21875 -0.40625 0.25 -0.40625 C 0.300781 -0.40625 0.335938 -0.394531 0.359375 -0.375 C 0.378906 -0.351562 0.390625 -0.3125 0.390625 -0.25 L 0.390625 0 Z M 0.34375 0 "/></g></g><g transform="translate(185.780264, 198.19982)"><g><path d="M 0.125 -0.203125 C 0.132812 -0.210938 0.148438 -0.234375 0.171875 -0.265625 L 0.296875 -0.390625 L 0.375 -0.390625 L 0.203125 -0.234375 L 0.390625 0 L 0.3125 0 L 0.171875 -0.1875 L 0.125 -0.15625 L 0.125 0 L 0.0625 0 L 0.0625 -0.578125 L 0.125 -0.578125 L 0.125 -0.265625 C 0.125 -0.253906 0.117188 -0.234375 0.109375 -0.203125 Z M 0.125 -0.203125 "/></g></g><g transform="translate(186.173941, 198.19982)"><g><path d="M 0.3125 0 L 0.296875 -0.0625 C 0.273438 -0.03125 0.253906 -0.0078125 0.234375 0 C 0.210938 0.0078125 0.1875 0.015625 0.15625 0.015625 C 0.125 0.015625 0.09375 0.00390625 0.0625 -0.015625 C 0.0390625 -0.046875 0.03125 -0.078125 0.03125 -0.109375 C 0.03125 -0.191406 0.0976562 -0.234375 0.234375 -0.234375 L 0.296875 -0.25 L 0.296875 -0.265625 C 0.296875 -0.296875 0.285156 -0.316406 0.265625 -0.328125 C 0.253906 -0.347656 0.234375 -0.359375 0.203125 -0.359375 C 0.171875 -0.359375 0.132812 -0.347656 0.09375 -0.328125 L 0.078125 -0.375 C 0.0976562 -0.382812 0.117188 -0.390625 0.140625 -0.390625 C 0.160156 -0.398438 0.179688 -0.40625 0.203125 -0.40625 C 0.265625 -0.40625 0.300781 -0.394531 0.3125 -0.375 C 0.332031 -0.351562 0.34375 -0.316406 0.34375 -0.265625 L 0.34375 0 Z M 0.171875 -0.046875 C 0.210938 -0.046875 0.242188 -0.0546875 0.265625 -0.078125 C 0.285156 -0.0976562 0.296875 -0.125 0.296875 -0.15625 L 0.296875 -0.203125 L 0.234375 -0.203125 C 0.179688 -0.191406 0.144531 -0.179688 0.125 -0.171875 C 0.101562 -0.160156 0.09375 -0.140625 0.09375 -0.109375 C 0.09375 -0.0859375 0.0976562 -0.0703125 0.109375 -0.0625 C 0.128906 -0.0507812 0.148438 -0.046875 0.171875 -0.046875 Z M 0.171875 -0.046875 "/></g></g><g transform="translate(186.591055, 198.19982)"><g><path d="M 0.34375 0 L 0.34375 -0.25 C 0.34375 -0.28125 0.332031 -0.300781 0.3125 -0.3125 C 0.300781 -0.332031 0.28125 -0.34375 0.25 -0.34375 C 0.207031 -0.34375 0.175781 -0.332031 0.15625 -0.3125 C 0.132812 -0.300781 0.125 -0.265625 0.125 -0.203125 L 0.125 0 L 0.0625 0 L 0.0625 -0.390625 L 0.109375 -0.390625 L 0.125 -0.34375 C 0.132812 -0.363281 0.148438 -0.378906 0.171875 -0.390625 C 0.191406 -0.398438 0.21875 -0.40625 0.25 -0.40625 C 0.300781 -0.40625 0.335938 -0.394531 0.359375 -0.375 C 0.378906 -0.351562 0.390625 -0.3125 0.390625 -0.25 L 0.390625 0 Z M 0.34375 0 "/></g></g><g transform="translate(187.051382, 198.19982)"><g/></g><g transform="translate(187.246206, 198.19982)"><g><path d="M 0.328125 -0.109375 C 0.328125 -0.078125 0.3125 -0.046875 0.28125 -0.015625 C 0.25 0.00390625 0.207031 0.015625 0.15625 0.015625 C 0.101562 0.015625 0.0625 0.00390625 0.03125 -0.015625 L 0.03125 -0.0625 C 0.0507812 -0.0625 0.0703125 -0.0546875 0.09375 -0.046875 C 0.125 -0.046875 0.144531 -0.046875 0.15625 -0.046875 C 0.1875 -0.046875 0.210938 -0.046875 0.234375 -0.046875 C 0.253906 -0.0546875 0.265625 -0.078125 0.265625 -0.109375 C 0.265625 -0.117188 0.253906 -0.128906 0.234375 -0.140625 C 0.222656 -0.148438 0.195312 -0.164062 0.15625 -0.1875 C 0.125 -0.195312 0.0976562 -0.207031 0.078125 -0.21875 C 0.0664062 -0.226562 0.0546875 -0.238281 0.046875 -0.25 C 0.0351562 -0.269531 0.03125 -0.285156 0.03125 -0.296875 C 0.03125 -0.328125 0.0390625 -0.351562 0.0625 -0.375 C 0.09375 -0.394531 0.132812 -0.40625 0.1875 -0.40625 C 0.226562 -0.40625 0.269531 -0.398438 0.3125 -0.390625 L 0.296875 -0.328125 C 0.253906 -0.347656 0.21875 -0.359375 0.1875 -0.359375 C 0.15625 -0.359375 0.128906 -0.351562 0.109375 -0.34375 C 0.0976562 -0.332031 0.09375 -0.316406 0.09375 -0.296875 C 0.09375 -0.296875 0.09375 -0.289062 0.09375 -0.28125 C 0.101562 -0.269531 0.113281 -0.257812 0.125 -0.25 C 0.144531 -0.25 0.171875 -0.238281 0.203125 -0.21875 C 0.242188 -0.207031 0.273438 -0.191406 0.296875 -0.171875 C 0.316406 -0.160156 0.328125 -0.140625 0.328125 -0.109375 Z M 0.328125 -0.109375 "/></g></g><g transform="translate(187.603994, 198.19982)"><g><path d="M 0.234375 0.015625 C 0.171875 0.015625 0.125 -0.00390625 0.09375 -0.046875 C 0.0625 -0.0859375 0.046875 -0.140625 0.046875 -0.203125 C 0.046875 -0.265625 0.0625 -0.3125 0.09375 -0.34375 C 0.125 -0.382812 0.164062 -0.40625 0.21875 -0.40625 C 0.269531 -0.40625 0.3125 -0.382812 0.34375 -0.34375 C 0.375 -0.3125 0.390625 -0.269531 0.390625 -0.21875 L 0.390625 -0.1875 L 0.109375 -0.1875 C 0.109375 -0.132812 0.117188 -0.0976562 0.140625 -0.078125 C 0.160156 -0.0546875 0.191406 -0.046875 0.234375 -0.046875 C 0.273438 -0.046875 0.316406 -0.0507812 0.359375 -0.0625 L 0.359375 -0.015625 C 0.335938 -0.00390625 0.316406 0 0.296875 0 C 0.273438 0.0078125 0.253906 0.015625 0.234375 0.015625 Z M 0.21875 -0.359375 C 0.175781 -0.359375 0.144531 -0.347656 0.125 -0.328125 C 0.113281 -0.304688 0.109375 -0.273438 0.109375 -0.234375 L 0.3125 -0.234375 C 0.3125 -0.273438 0.300781 -0.304688 0.28125 -0.328125 C 0.269531 -0.347656 0.25 -0.359375 0.21875 -0.359375 Z M 0.21875 -0.359375 "/></g></g><g transform="translate(188.02477, 198.19982)"><g><path d="M 0.34375 -0.0625 C 0.3125 -0.0078125 0.265625 0.015625 0.203125 0.015625 C 0.148438 0.015625 0.109375 -0.00390625 0.078125 -0.046875 C 0.0546875 -0.0859375 0.046875 -0.140625 0.046875 -0.203125 C 0.046875 -0.265625 0.0546875 -0.3125 0.078125 -0.34375 C 0.109375 -0.382812 0.148438 -0.40625 0.203125 -0.40625 C 0.265625 -0.40625 0.304688 -0.382812 0.328125 -0.34375 L 0.34375 -0.34375 L 0.34375 -0.578125 L 0.390625 -0.578125 L 0.390625 0 L 0.34375 0 Z M 0.203125 -0.046875 C 0.253906 -0.046875 0.289062 -0.0546875 0.3125 -0.078125 C 0.332031 -0.0976562 0.34375 -0.132812 0.34375 -0.1875 L 0.34375 -0.203125 C 0.34375 -0.253906 0.332031 -0.289062 0.3125 -0.3125 C 0.289062 -0.34375 0.253906 -0.359375 0.203125 -0.359375 C 0.171875 -0.359375 0.144531 -0.34375 0.125 -0.3125 C 0.113281 -0.28125 0.109375 -0.242188 0.109375 -0.203125 C 0.109375 -0.140625 0.113281 -0.0976562 0.125 -0.078125 C 0.144531 -0.0546875 0.171875 -0.046875 0.203125 -0.046875 Z M 0.203125 -0.046875 "/></g></g><g transform="translate(188.484364, 198.19982)"><g><path d="M 0.125 0 L 0.0625 0 L 0.0625 -0.390625 L 0.125 -0.390625 Z M 0.0625 -0.515625 C 0.0625 -0.523438 0.0625 -0.53125 0.0625 -0.53125 C 0.0703125 -0.539062 0.0820312 -0.546875 0.09375 -0.546875 C 0.101562 -0.546875 0.109375 -0.539062 0.109375 -0.53125 C 0.117188 -0.53125 0.125 -0.523438 0.125 -0.515625 C 0.125 -0.492188 0.117188 -0.476562 0.109375 -0.46875 C 0.109375 -0.46875 0.101562 -0.46875 0.09375 -0.46875 C 0.0820312 -0.46875 0.0703125 -0.46875 0.0625 -0.46875 C 0.0625 -0.476562 0.0625 -0.492188 0.0625 -0.515625 Z M 0.0625 -0.515625 "/></g></g><g transform="translate(188.674062, 198.19982)"><g><path d="M 0.125 -0.203125 C 0.132812 -0.210938 0.148438 -0.234375 0.171875 -0.265625 L 0.296875 -0.390625 L 0.375 -0.390625 L 0.203125 -0.234375 L 0.390625 0 L 0.3125 0 L 0.171875 -0.1875 L 0.125 -0.15625 L 0.125 0 L 0.0625 0 L 0.0625 -0.578125 L 0.125 -0.578125 L 0.125 -0.265625 C 0.125 -0.253906 0.117188 -0.234375 0.109375 -0.203125 Z M 0.125 -0.203125 "/></g></g><g transform="translate(189.067738, 198.19982)"><g><path d="M 0.125 0 L 0.0625 0 L 0.0625 -0.390625 L 0.125 -0.390625 Z M 0.0625 -0.515625 C 0.0625 -0.523438 0.0625 -0.53125 0.0625 -0.53125 C 0.0703125 -0.539062 0.0820312 -0.546875 0.09375 -0.546875 C 0.101562 -0.546875 0.109375 -0.539062 0.109375 -0.53125 C 0.117188 -0.53125 0.125 -0.523438 0.125 -0.515625 C 0.125 -0.492188 0.117188 -0.476562 0.109375 -0.46875 C 0.109375 -0.46875 0.101562 -0.46875 0.09375 -0.46875 C 0.0820312 -0.46875 0.0703125 -0.46875 0.0625 -0.46875 C 0.0625 -0.476562 0.0625 -0.492188 0.0625 -0.515625 Z M 0.0625 -0.515625 "/></g></g><g transform="translate(189.257435, 198.19982)"><g><path d="M 0.203125 -0.046875 C 0.203125 -0.046875 0.207031 -0.046875 0.21875 -0.046875 C 0.238281 -0.046875 0.25 -0.046875 0.25 -0.046875 L 0.25 0 C 0.238281 0 0.226562 0 0.21875 0 C 0.207031 0.0078125 0.195312 0.015625 0.1875 0.015625 C 0.101562 0.015625 0.0625 -0.0234375 0.0625 -0.109375 L 0.0625 -0.34375 L 0.015625 -0.34375 L 0.015625 -0.390625 L 0.0625 -0.40625 L 0.09375 -0.484375 L 0.125 -0.484375 L 0.125 -0.390625 L 0.25 -0.390625 L 0.25 -0.34375 L 0.125 -0.34375 L 0.125 -0.109375 C 0.125 -0.0859375 0.128906 -0.0703125 0.140625 -0.0625 C 0.148438 -0.0507812 0.171875 -0.046875 0.203125 -0.046875 Z M 0.203125 -0.046875 "/></g></g><g transform="translate(189.522206, 198.19982)"><g/></g><g transform="translate(189.71703, 198.19982)"><g><path d="M 0.203125 -0.046875 C 0.203125 -0.046875 0.207031 -0.046875 0.21875 -0.046875 C 0.238281 -0.046875 0.25 -0.046875 0.25 -0.046875 L 0.25 0 C 0.238281 0 0.226562 0 0.21875 0 C 0.207031 0.0078125 0.195312 0.015625 0.1875 0.015625 C 0.101562 0.015625 0.0625 -0.0234375 0.0625 -0.109375 L 0.0625 -0.34375 L 0.015625 -0.34375 L 0.015625 -0.390625 L 0.0625 -0.40625 L 0.09375 -0.484375 L 0.125 -0.484375 L 0.125 -0.390625 L 0.25 -0.390625 L 0.25 -0.34375 L 0.125 -0.34375 L 0.125 -0.109375 C 0.125 -0.0859375 0.128906 -0.0703125 0.140625 -0.0625 C 0.148438 -0.0507812 0.171875 -0.046875 0.203125 -0.046875 Z M 0.203125 -0.046875 "/></g></g><g transform="translate(189.9818, 198.19982)"><g><path d="M 0.234375 0.015625 C 0.171875 0.015625 0.125 -0.00390625 0.09375 -0.046875 C 0.0625 -0.0859375 0.046875 -0.140625 0.046875 -0.203125 C 0.046875 -0.265625 0.0625 -0.3125 0.09375 -0.34375 C 0.125 -0.382812 0.164062 -0.40625 0.21875 -0.40625 C 0.269531 -0.40625 0.3125 -0.382812 0.34375 -0.34375 C 0.375 -0.3125 0.390625 -0.269531 0.390625 -0.21875 L 0.390625 -0.1875 L 0.109375 -0.1875 C 0.109375 -0.132812 0.117188 -0.0976562 0.140625 -0.078125 C 0.160156 -0.0546875 0.191406 -0.046875 0.234375 -0.046875 C 0.273438 -0.046875 0.316406 -0.0507812 0.359375 -0.0625 L 0.359375 -0.015625 C 0.335938 -0.00390625 0.316406 0 0.296875 0 C 0.273438 0.0078125 0.253906 0.015625 0.234375 0.015625 Z M 0.21875 -0.359375 C 0.175781 -0.359375 0.144531 -0.347656 0.125 -0.328125 C 0.113281 -0.304688 0.109375 -0.273438 0.109375 -0.234375 L 0.3125 -0.234375 C 0.3125 -0.273438 0.300781 -0.304688 0.28125 -0.328125 C 0.269531 -0.347656 0.25 -0.359375 0.21875 -0.359375 Z M 0.21875 -0.359375 "/></g></g><g transform="translate(190.402576, 198.19982)"><g><path d="M 0.125 -0.203125 C 0.132812 -0.210938 0.148438 -0.234375 0.171875 -0.265625 L 0.296875 -0.390625 L 0.375 -0.390625 L 0.203125 -0.234375 L 0.390625 0 L 0.3125 0 L 0.171875 -0.1875 L 0.125 -0.15625 L 0.125 0 L 0.0625 0 L 0.0625 -0.578125 L 0.125 -0.578125 L 0.125 -0.265625 C 0.125 -0.253906 0.117188 -0.234375 0.109375 -0.203125 Z M 0.125 -0.203125 "/></g></g><g transform="translate(190.796253, 198.19982)"><g><path d="M 0.328125 -0.109375 C 0.328125 -0.078125 0.3125 -0.046875 0.28125 -0.015625 C 0.25 0.00390625 0.207031 0.015625 0.15625 0.015625 C 0.101562 0.015625 0.0625 0.00390625 0.03125 -0.015625 L 0.03125 -0.0625 C 0.0507812 -0.0625 0.0703125 -0.0546875 0.09375 -0.046875 C 0.125 -0.046875 0.144531 -0.046875 0.15625 -0.046875 C 0.1875 -0.046875 0.210938 -0.046875 0.234375 -0.046875 C 0.253906 -0.0546875 0.265625 -0.078125 0.265625 -0.109375 C 0.265625 -0.117188 0.253906 -0.128906 0.234375 -0.140625 C 0.222656 -0.148438 0.195312 -0.164062 0.15625 -0.1875 C 0.125 -0.195312 0.0976562 -0.207031 0.078125 -0.21875 C 0.0664062 -0.226562 0.0546875 -0.238281 0.046875 -0.25 C 0.0351562 -0.269531 0.03125 -0.285156 0.03125 -0.296875 C 0.03125 -0.328125 0.0390625 -0.351562 0.0625 -0.375 C 0.09375 -0.394531 0.132812 -0.40625 0.1875 -0.40625 C 0.226562 -0.40625 0.269531 -0.398438 0.3125 -0.390625 L 0.296875 -0.328125 C 0.253906 -0.347656 0.21875 -0.359375 0.1875 -0.359375 C 0.15625 -0.359375 0.128906 -0.351562 0.109375 -0.34375 C 0.0976562 -0.332031 0.09375 -0.316406 0.09375 -0.296875 C 0.09375 -0.296875 0.09375 -0.289062 0.09375 -0.28125 C 0.101562 -0.269531 0.113281 -0.257812 0.125 -0.25 C 0.144531 -0.25 0.171875 -0.238281 0.203125 -0.21875 C 0.242188 -0.207031 0.273438 -0.191406 0.296875 -0.171875 C 0.316406 -0.160156 0.328125 -0.140625 0.328125 -0.109375 Z M 0.328125 -0.109375 "/></g></g><g transform="translate(191.154041, 198.19982)"><g/></g><g transform="translate(191.348865, 198.19982)"><g><path d="M 0.125 0 L 0.0625 0 L 0.0625 -0.390625 L 0.125 -0.390625 Z M 0.0625 -0.515625 C 0.0625 -0.523438 0.0625 -0.53125 0.0625 -0.53125 C 0.0703125 -0.539062 0.0820312 -0.546875 0.09375 -0.546875 C 0.101562 -0.546875 0.109375 -0.539062 0.109375 -0.53125 C 0.117188 -0.53125 0.125 -0.523438 0.125 -0.515625 C 0.125 -0.492188 0.117188 -0.476562 0.109375 -0.46875 C 0.109375 -0.46875 0.101562 -0.46875 0.09375 -0.46875 C 0.0820312 -0.46875 0.0703125 -0.46875 0.0625 -0.46875 C 0.0625 -0.476562 0.0625 -0.492188 0.0625 -0.515625 Z M 0.0625 -0.515625 "/></g></g><g transform="translate(191.538562, 198.19982)"><g><path d="M 0.328125 -0.109375 C 0.328125 -0.078125 0.3125 -0.046875 0.28125 -0.015625 C 0.25 0.00390625 0.207031 0.015625 0.15625 0.015625 C 0.101562 0.015625 0.0625 0.00390625 0.03125 -0.015625 L 0.03125 -0.0625 C 0.0507812 -0.0625 0.0703125 -0.0546875 0.09375 -0.046875 C 0.125 -0.046875 0.144531 -0.046875 0.15625 -0.046875 C 0.1875 -0.046875 0.210938 -0.046875 0.234375 -0.046875 C 0.253906 -0.0546875 0.265625 -0.078125 0.265625 -0.109375 C 0.265625 -0.117188 0.253906 -0.128906 0.234375 -0.140625 C 0.222656 -0.148438 0.195312 -0.164062 0.15625 -0.1875 C 0.125 -0.195312 0.0976562 -0.207031 0.078125 -0.21875 C 0.0664062 -0.226562 0.0546875 -0.238281 0.046875 -0.25 C 0.0351562 -0.269531 0.03125 -0.285156 0.03125 -0.296875 C 0.03125 -0.328125 0.0390625 -0.351562 0.0625 -0.375 C 0.09375 -0.394531 0.132812 -0.40625 0.1875 -0.40625 C 0.226562 -0.40625 0.269531 -0.398438 0.3125 -0.390625 L 0.296875 -0.328125 C 0.253906 -0.347656 0.21875 -0.359375 0.1875 -0.359375 C 0.15625 -0.359375 0.128906 -0.351562 0.109375 -0.34375 C 0.0976562 -0.332031 0.09375 -0.316406 0.09375 -0.296875 C 0.09375 -0.296875 0.09375 -0.289062 0.09375 -0.28125 C 0.101562 -0.269531 0.113281 -0.257812 0.125 -0.25 C 0.144531 -0.25 0.171875 -0.238281 0.203125 -0.21875 C 0.242188 -0.207031 0.273438 -0.191406 0.296875 -0.171875 C 0.316406 -0.160156 0.328125 -0.140625 0.328125 -0.109375 Z M 0.328125 -0.109375 "/></g></g><g transform="translate(191.89635, 198.19982)"><g><path d="M 0.125 0 L 0.0625 0 L 0.0625 -0.390625 L 0.125 -0.390625 Z M 0.0625 -0.515625 C 0.0625 -0.523438 0.0625 -0.53125 0.0625 -0.53125 C 0.0703125 -0.539062 0.0820312 -0.546875 0.09375 -0.546875 C 0.101562 -0.546875 0.109375 -0.539062 0.109375 -0.53125 C 0.117188 -0.53125 0.125 -0.523438 0.125 -0.515625 C 0.125 -0.492188 0.117188 -0.476562 0.109375 -0.46875 C 0.109375 -0.46875 0.101562 -0.46875 0.09375 -0.46875 C 0.0820312 -0.46875 0.0703125 -0.46875 0.0625 -0.46875 C 0.0625 -0.476562 0.0625 -0.492188 0.0625 -0.515625 Z M 0.0625 -0.515625 "/></g></g></g><g fill="#282a29" fill-opacity="1"><g transform="translate(55.505859, 284.430773)"><g><path d="M 14.875 -30.34375 L 21.203125 -29.6875 L 21.203125 0 L 15.59375 0 L 15.28125 -2.34375 C 14.695312 -1.507812 13.914062 -0.796875 12.9375 -0.203125 C 11.96875 0.390625 10.789062 0.6875 9.40625 0.6875 C 7.644531 0.6875 6.1875 0.210938 5.03125 -0.734375 C 3.875 -1.679688 3.007812 -3.003906 2.4375 -4.703125 C 1.875 -6.410156 1.59375 -8.40625 1.59375 -10.6875 C 1.59375 -12.863281 1.929688 -14.800781 2.609375 -16.5 C 3.296875 -18.195312 4.269531 -19.523438 5.53125 -20.484375 C 6.800781 -21.453125 8.3125 -21.9375 10.0625 -21.9375 C 11.007812 -21.9375 11.890625 -21.769531 12.703125 -21.4375 C 13.515625 -21.101562 14.238281 -20.617188 14.875 -19.984375 Z M 11.765625 -17.3125 C 10.671875 -17.3125 9.789062 -16.796875 9.125 -15.765625 C 8.457031 -14.734375 8.125 -13.023438 8.125 -10.640625 C 8.125 -8.890625 8.257812 -7.53125 8.53125 -6.5625 C 8.8125 -5.601562 9.195312 -4.925781 9.6875 -4.53125 C 10.1875 -4.144531 10.757812 -3.953125 11.40625 -3.953125 C 12.101562 -3.953125 12.742188 -4.171875 13.328125 -4.609375 C 13.910156 -5.054688 14.425781 -5.660156 14.875 -6.421875 L 14.875 -15.578125 C 14.4375 -16.128906 13.96875 -16.554688 13.46875 -16.859375 C 12.976562 -17.160156 12.410156 -17.3125 11.765625 -17.3125 Z M 11.765625 -17.3125 "/></g></g></g><g fill="#282a29" fill-opacity="1"><g transform="translate(79.503477, 284.430773)"><g><path d="M 8.28125 -8.78125 C 8.425781 -7.625 8.726562 -6.6875 9.1875 -5.96875 C 9.644531 -5.257812 10.234375 -4.738281 10.953125 -4.40625 C 11.679688 -4.082031 12.488281 -3.921875 13.375 -3.921875 C 14.351562 -3.921875 15.296875 -4.078125 16.203125 -4.390625 C 17.109375 -4.710938 17.976562 -5.144531 18.8125 -5.6875 L 21.359375 -2.234375 C 20.359375 -1.378906 19.144531 -0.675781 17.71875 -0.125 C 16.300781 0.414062 14.6875 0.6875 12.875 0.6875 C 10.445312 0.6875 8.410156 0.203125 6.765625 -0.765625 C 5.128906 -1.734375 3.898438 -3.0625 3.078125 -4.75 C 2.253906 -6.445312 1.84375 -8.394531 1.84375 -10.59375 C 1.84375 -12.6875 2.238281 -14.585938 3.03125 -16.296875 C 3.832031 -18.015625 5.003906 -19.382812 6.546875 -20.40625 C 8.085938 -21.425781 9.972656 -21.9375 12.203125 -21.9375 C 14.222656 -21.9375 15.976562 -21.503906 17.46875 -20.640625 C 18.957031 -19.773438 20.109375 -18.523438 20.921875 -16.890625 C 21.742188 -15.265625 22.15625 -13.316406 22.15625 -11.046875 C 22.15625 -10.679688 22.144531 -10.289062 22.125 -9.875 C 22.101562 -9.46875 22.078125 -9.101562 22.046875 -8.78125 Z M 12.203125 -17.703125 C 11.066406 -17.703125 10.148438 -17.296875 9.453125 -16.484375 C 8.765625 -15.671875 8.347656 -14.367188 8.203125 -12.578125 L 16 -12.578125 C 15.988281 -14.128906 15.6875 -15.367188 15.09375 -16.296875 C 14.507812 -17.234375 13.546875 -17.703125 12.203125 -17.703125 Z M 12.203125 -17.703125 "/></g></g></g><g fill="#282a29" fill-opacity="1"><g transform="translate(103.501095, 284.430773)"><g><path d="M 20.84375 0 L 13.859375 0 L 12.046875 -14.28125 L 10.140625 0 L 3.28125 0 L 0.140625 -21.234375 L 5.921875 -21.234375 L 7.296875 -3.9375 L 9.546875 -18.5625 L 14.859375 -18.5625 L 16.859375 -3.9375 L 18.28125 -21.234375 L 23.859375 -21.234375 Z M 20.84375 0 "/></g></g></g><g fill="#282a29" fill-opacity="1"><g transform="translate(127.498713, 284.430773)"><g><path d="M 20.6875 -6.125 C 20.6875 -5.320312 20.796875 -4.738281 21.015625 -4.375 C 21.234375 -4.019531 21.585938 -3.75 22.078125 -3.5625 L 20.78125 0.59375 C 19.53125 0.476562 18.472656 0.207031 17.609375 -0.21875 C 16.742188 -0.65625 16.066406 -1.316406 15.578125 -2.203125 C 14.765625 -1.222656 13.722656 -0.492188 12.453125 -0.015625 C 11.191406 0.453125 9.898438 0.6875 8.578125 0.6875 C 6.390625 0.6875 4.644531 0.0625 3.34375 -1.1875 C 2.050781 -2.4375 1.40625 -4.039062 1.40625 -6 C 1.40625 -8.300781 2.304688 -10.078125 4.109375 -11.328125 C 5.910156 -12.585938 8.453125 -13.21875 11.734375 -13.21875 L 14.59375 -13.21875 L 14.59375 -14.015625 C 14.59375 -15.128906 14.234375 -15.953125 13.515625 -16.484375 C 12.804688 -17.015625 11.769531 -17.28125 10.40625 -17.28125 C 9.71875 -17.28125 8.84375 -17.179688 7.78125 -16.984375 C 6.71875 -16.796875 5.648438 -16.519531 4.578125 -16.15625 L 3.125 -20.359375 C 4.5 -20.878906 5.925781 -21.269531 7.40625 -21.53125 C 8.894531 -21.800781 10.226562 -21.9375 11.40625 -21.9375 C 14.5625 -21.9375 16.894531 -21.289062 18.40625 -20 C 19.925781 -18.71875 20.6875 -16.863281 20.6875 -14.4375 Z M 10.765625 -3.84375 C 11.441406 -3.84375 12.148438 -4.046875 12.890625 -4.453125 C 13.640625 -4.859375 14.207031 -5.4375 14.59375 -6.1875 L 14.59375 -9.625 L 13.046875 -9.625 C 11.285156 -9.625 9.988281 -9.351562 9.15625 -8.8125 C 8.332031 -8.269531 7.921875 -7.476562 7.921875 -6.4375 C 7.921875 -5.625 8.171875 -4.988281 8.671875 -4.53125 C 9.171875 -4.070312 9.867188 -3.84375 10.765625 -3.84375 Z M 10.765625 -3.84375 "/></g></g></g><g fill="#282a29" fill-opacity="1"><g transform="translate(151.496331, 284.430773)"><g><path d="M 14.5625 -21.9375 C 16.414062 -21.9375 17.90625 -21.476562 19.03125 -20.5625 C 20.164062 -19.644531 20.992188 -18.34375 21.515625 -16.65625 C 22.046875 -14.976562 22.3125 -12.988281 22.3125 -10.6875 C 22.3125 -8.5 21.992188 -6.546875 21.359375 -4.828125 C 20.722656 -3.117188 19.796875 -1.769531 18.578125 -0.78125 C 17.367188 0.195312 15.894531 0.6875 14.15625 0.6875 C 12.09375 0.6875 10.414062 -0.0546875 9.125 -1.546875 L 9.125 8.203125 L 2.796875 8.859375 L 2.796875 -21.234375 L 8.40625 -21.234375 L 8.6875 -18.859375 C 9.550781 -19.960938 10.492188 -20.75 11.515625 -21.21875 C 12.546875 -21.695312 13.5625 -21.9375 14.5625 -21.9375 Z M 12.59375 -17.28125 C 11.863281 -17.28125 11.21875 -17.054688 10.65625 -16.609375 C 10.09375 -16.171875 9.582031 -15.570312 9.125 -14.8125 L 9.125 -5.859375 C 9.5625 -5.203125 10.019531 -4.71875 10.5 -4.40625 C 10.988281 -4.101562 11.566406 -3.953125 12.234375 -3.953125 C 13.359375 -3.953125 14.234375 -4.460938 14.859375 -5.484375 C 15.484375 -6.503906 15.796875 -8.207031 15.796875 -10.59375 C 15.796875 -12.351562 15.671875 -13.71875 15.421875 -14.6875 C 15.171875 -15.65625 14.800781 -16.328125 14.3125 -16.703125 C 13.832031 -17.085938 13.257812 -17.28125 12.59375 -17.28125 Z M 12.59375 -17.28125 "/></g></g></g><g fill="#282a29" fill-opacity="1"><g transform="translate(175.493949, 284.430773)"><g><path d="M 8.28125 -8.78125 C 8.425781 -7.625 8.726562 -6.6875 9.1875 -5.96875 C 9.644531 -5.257812 10.234375 -4.738281 10.953125 -4.40625 C 11.679688 -4.082031 12.488281 -3.921875 13.375 -3.921875 C 14.351562 -3.921875 15.296875 -4.078125 16.203125 -4.390625 C 17.109375 -4.710938 17.976562 -5.144531 18.8125 -5.6875 L 21.359375 -2.234375 C 20.359375 -1.378906 19.144531 -0.675781 17.71875 -0.125 C 16.300781 0.414062 14.6875 0.6875 12.875 0.6875 C 10.445312 0.6875 8.410156 0.203125 6.765625 -0.765625 C 5.128906 -1.734375 3.898438 -3.0625 3.078125 -4.75 C 2.253906 -6.445312 1.84375 -8.394531 1.84375 -10.59375 C 1.84375 -12.6875 2.238281 -14.585938 3.03125 -16.296875 C 3.832031 -18.015625 5.003906 -19.382812 6.546875 -20.40625 C 8.085938 -21.425781 9.972656 -21.9375 12.203125 -21.9375 C 14.222656 -21.9375 15.976562 -21.503906 17.46875 -20.640625 C 18.957031 -19.773438 20.109375 -18.523438 20.921875 -16.890625 C 21.742188 -15.265625 22.15625 -13.316406 22.15625 -11.046875 C 22.15625 -10.679688 22.144531 -10.289062 22.125 -9.875 C 22.101562 -9.46875 22.078125 -9.101562 22.046875 -8.78125 Z M 12.203125 -17.703125 C 11.066406 -17.703125 10.148438 -17.296875 9.453125 -16.484375 C 8.765625 -15.671875 8.347656 -14.367188 8.203125 -12.578125 L 16 -12.578125 C 15.988281 -14.128906 15.6875 -15.367188 15.09375 -16.296875 C 14.507812 -17.234375 13.546875 -17.703125 12.203125 -17.703125 Z M 12.203125 -17.703125 "/></g></g></g><g fill="#282a29" fill-opacity="1"><g transform="translate(199.491567, 284.430773)"><g><path d="M 3 0 L 3 -4.234375 L 5.796875 -4.234375 L 5.796875 -17.046875 L 3 -17.046875 L 3 -21.234375 L 10.625 -21.234375 L 11.78125 -16.453125 C 12.539062 -18.285156 13.507812 -19.644531 14.6875 -20.53125 C 15.863281 -21.425781 17.304688 -21.875 19.015625 -21.875 C 19.734375 -21.875 20.375 -21.816406 20.9375 -21.703125 C 21.5 -21.597656 22.023438 -21.441406 22.515625 -21.234375 L 20.59375 -16.015625 C 20.207031 -16.128906 19.820312 -16.210938 19.4375 -16.265625 C 19.050781 -16.316406 18.625 -16.34375 18.15625 -16.34375 C 16.769531 -16.34375 15.550781 -15.773438 14.5 -14.640625 C 13.457031 -13.503906 12.664062 -12.0625 12.125 -10.3125 L 12.125 -4.234375 L 16.3125 -4.234375 L 16.3125 0 Z M 17.375 -12.359375 L 17.375 -18.5625 L 18.3125 -21.234375 L 22.515625 -21.234375 L 21.34375 -12.359375 Z M 17.375 -12.359375 "/></g></g></g><g fill="#282a29" fill-opacity="1"><g transform="translate(223.489185, 284.430773)"><g><path d="M 18.5 -21.9375 C 19.507812 -21.9375 20.34375 -21.722656 21 -21.296875 C 21.65625 -20.867188 22.140625 -20.195312 22.453125 -19.28125 C 22.773438 -18.375 22.9375 -17.1875 22.9375 -15.71875 L 22.9375 0 L 17.515625 0 L 17.515625 -15 C 17.515625 -15.75 17.441406 -16.273438 17.296875 -16.578125 C 17.160156 -16.890625 16.878906 -17.046875 16.453125 -17.046875 C 16.117188 -17.046875 15.773438 -16.945312 15.421875 -16.75 C 15.078125 -16.550781 14.691406 -16.1875 14.265625 -15.65625 L 14.265625 0 L 9.8125 0 L 9.8125 -15 C 9.8125 -15.75 9.742188 -16.273438 9.609375 -16.578125 C 9.472656 -16.890625 9.191406 -17.046875 8.765625 -17.046875 C 8.429688 -17.046875 8.085938 -16.945312 7.734375 -16.75 C 7.378906 -16.550781 6.988281 -16.1875 6.5625 -15.65625 L 6.5625 0 L 1.0625 0 L 1.0625 -21.234375 L 5.703125 -21.234375 L 6.125 -19.1875 C 6.789062 -20.09375 7.460938 -20.773438 8.140625 -21.234375 C 8.816406 -21.703125 9.625 -21.9375 10.5625 -21.9375 C 11.363281 -21.9375 12.046875 -21.734375 12.609375 -21.328125 C 13.171875 -20.921875 13.570312 -20.285156 13.8125 -19.421875 C 14.457031 -20.171875 15.164062 -20.773438 15.9375 -21.234375 C 16.707031 -21.703125 17.5625 -21.9375 18.5 -21.9375 Z M 18.5 -21.9375 "/></g></g></g><g fill="#282a29" fill-opacity="1"><g transform="translate(247.486803, 284.430773)"><g><path d="M 20.6875 -6.125 C 20.6875 -5.320312 20.796875 -4.738281 21.015625 -4.375 C 21.234375 -4.019531 21.585938 -3.75 22.078125 -3.5625 L 20.78125 0.59375 C 19.53125 0.476562 18.472656 0.207031 17.609375 -0.21875 C 16.742188 -0.65625 16.066406 -1.316406 15.578125 -2.203125 C 14.765625 -1.222656 13.722656 -0.492188 12.453125 -0.015625 C 11.191406 0.453125 9.898438 0.6875 8.578125 0.6875 C 6.390625 0.6875 4.644531 0.0625 3.34375 -1.1875 C 2.050781 -2.4375 1.40625 -4.039062 1.40625 -6 C 1.40625 -8.300781 2.304688 -10.078125 4.109375 -11.328125 C 5.910156 -12.585938 8.453125 -13.21875 11.734375 -13.21875 L 14.59375 -13.21875 L 14.59375 -14.015625 C 14.59375 -15.128906 14.234375 -15.953125 13.515625 -16.484375 C 12.804688 -17.015625 11.769531 -17.28125 10.40625 -17.28125 C 9.71875 -17.28125 8.84375 -17.179688 7.78125 -16.984375 C 6.71875 -16.796875 5.648438 -16.519531 4.578125 -16.15625 L 3.125 -20.359375 C 4.5 -20.878906 5.925781 -21.269531 7.40625 -21.53125 C 8.894531 -21.800781 10.226562 -21.9375 11.40625 -21.9375 C 14.5625 -21.9375 16.894531 -21.289062 18.40625 -20 C 19.925781 -18.71875 20.6875 -16.863281 20.6875 -14.4375 Z M 10.765625 -3.84375 C 11.441406 -3.84375 12.148438 -4.046875 12.890625 -4.453125 C 13.640625 -4.859375 14.207031 -5.4375 14.59375 -6.1875 L 14.59375 -9.625 L 13.046875 -9.625 C 11.285156 -9.625 9.988281 -9.351562 9.15625 -8.8125 C 8.332031 -8.269531 7.921875 -7.476562 7.921875 -6.4375 C 7.921875 -5.625 8.171875 -4.988281 8.671875 -4.53125 C 9.171875 -4.070312 9.867188 -3.84375 10.765625 -3.84375 Z M 10.765625 -3.84375 "/></g></g></g><g fill="#282a29" fill-opacity="1"><g transform="translate(271.484421, 284.430773)"><g><path d="M 2.796875 0 L 2.796875 -21.234375 L 8.3125 -21.234375 L 8.765625 -18.78125 C 9.710938 -19.84375 10.710938 -20.632812 11.765625 -21.15625 C 12.816406 -21.675781 14.015625 -21.9375 15.359375 -21.9375 C 17.171875 -21.9375 18.597656 -21.382812 19.640625 -20.28125 C 20.679688 -19.175781 21.203125 -17.613281 21.203125 -15.59375 L 21.203125 0 L 14.875 0 L 14.875 -13.78125 C 14.875 -14.644531 14.8125 -15.332031 14.6875 -15.84375 C 14.570312 -16.363281 14.363281 -16.734375 14.0625 -16.953125 C 13.769531 -17.171875 13.363281 -17.28125 12.84375 -17.28125 C 12.40625 -17.28125 11.972656 -17.179688 11.546875 -16.984375 C 11.128906 -16.796875 10.71875 -16.519531 10.3125 -16.15625 C 9.914062 -15.800781 9.519531 -15.367188 9.125 -14.859375 L 9.125 0 Z M 2.796875 0 "/></g></g></g><g fill="#282a29" fill-opacity="1"><g transform="translate(295.482038, 284.430773)"><g><path d="M 20.6875 -6.125 C 20.6875 -5.320312 20.796875 -4.738281 21.015625 -4.375 C 21.234375 -4.019531 21.585938 -3.75 22.078125 -3.5625 L 20.78125 0.59375 C 19.53125 0.476562 18.472656 0.207031 17.609375 -0.21875 C 16.742188 -0.65625 16.066406 -1.316406 15.578125 -2.203125 C 14.765625 -1.222656 13.722656 -0.492188 12.453125 -0.015625 C 11.191406 0.453125 9.898438 0.6875 8.578125 0.6875 C 6.390625 0.6875 4.644531 0.0625 3.34375 -1.1875 C 2.050781 -2.4375 1.40625 -4.039062 1.40625 -6 C 1.40625 -8.300781 2.304688 -10.078125 4.109375 -11.328125 C 5.910156 -12.585938 8.453125 -13.21875 11.734375 -13.21875 L 14.59375 -13.21875 L 14.59375 -14.015625 C 14.59375 -15.128906 14.234375 -15.953125 13.515625 -16.484375 C 12.804688 -17.015625 11.769531 -17.28125 10.40625 -17.28125 C 9.71875 -17.28125 8.84375 -17.179688 7.78125 -16.984375 C 6.71875 -16.796875 5.648438 -16.519531 4.578125 -16.15625 L 3.125 -20.359375 C 4.5 -20.878906 5.925781 -21.269531 7.40625 -21.53125 C 8.894531 -21.800781 10.226562 -21.9375 11.40625 -21.9375 C 14.5625 -21.9375 16.894531 -21.289062 18.40625 -20 C 19.925781 -18.71875 20.6875 -16.863281 20.6875 -14.4375 Z M 10.765625 -3.84375 C 11.441406 -3.84375 12.148438 -4.046875 12.890625 -4.453125 C 13.640625 -4.859375 14.207031 -5.4375 14.59375 -6.1875 L 14.59375 -9.625 L 13.046875 -9.625 C 11.285156 -9.625 9.988281 -9.351562 9.15625 -8.8125 C 8.332031 -8.269531 7.921875 -7.476562 7.921875 -6.4375 C 7.921875 -5.625 8.171875 -4.988281 8.671875 -4.53125 C 9.171875 -4.070312 9.867188 -3.84375 10.765625 -3.84375 Z M 10.765625 -3.84375 "/></g></g></g></svg>