<svg xmlns="http://www.w3.org/2000/svg" xmlns:xlink="http://www.w3.org/1999/xlink" width="500" zoomAndPan="magnify" viewBox="0 0 375 374.999991" height="500" preserveAspectRatio="xMidYMid meet" version="1.0"><defs><g/><clipPath id="62b0b14c91"><path d="M 24.382812 70 L 341.632812 70 L 341.632812 305 L 24.382812 305 Z M 24.382812 70 " clip-rule="nonzero"/></clipPath></defs><rect x="-37.5" width="450" fill="#ffffff" y="-37.499999" height="449.999989" fill-opacity="1"/><rect x="-37.5" width="450" fill="#000000" y="-37.499999" height="449.999989" fill-opacity="1"/><g clip-path="url(#62b0b14c91)"><path fill="#ffffff" d="M 142.011719 96.609375 L 141.511719 183.457031 L 141.253906 227.660156 L 141.25 227.664062 C 140.773438 234.808594 139.59375 241.257812 137.695312 246.988281 C 137.65625 247.113281 137.617188 247.238281 137.574219 247.363281 C 136.46875 250.625 134.78125 253.832031 132.5 256.953125 C 130.714844 259.410156 128.574219 261.824219 126.0625 264.199219 C 121.785156 268.246094 117.066406 271.125 111.929688 272.839844 C 111.292969 273.050781 110.648438 273.246094 110.003906 273.429688 C 105.496094 274.683594 100.949219 275.113281 96.382812 274.695312 C 91.160156 274.230469 86.046875 272.765625 81.019531 270.308594 C 75.992188 267.863281 71.449219 264.488281 67.398438 260.207031 L 67.132812 259.921875 C 63.082031 255.644531 59.992188 250.945312 57.867188 245.835938 C 55.746094 240.730469 54.613281 235.535156 54.476562 230.25 C 54.347656 224.972656 55.304688 219.832031 57.335938 214.839844 C 59.375 209.851562 62.488281 205.378906 66.675781 201.417969 C 71.714844 196.652344 77.203125 193.351562 83.132812 191.523438 C 84.003906 191.257812 84.890625 191.007812 85.785156 190.78125 L 85.789062 219.753906 L 113.332031 194.808594 L 113.894531 123.207031 L 85.777344 149.804688 L 85.785156 160.332031 C 82.152344 160.988281 78.539062 161.96875 74.960938 163.304688 C 70.5625 164.941406 66.074219 167.199219 61.5 170.082031 C 56.933594 172.964844 52.308594 176.609375 47.648438 181.015625 C 39.945312 188.304688 34.1875 196.324219 30.378906 205.0625 C 26.578125 213.804688 24.613281 222.683594 24.5 231.71875 C 24.386719 240.738281 25.996094 249.582031 29.316406 258.246094 C 32.648438 266.898438 37.6875 274.804688 44.429688 281.933594 L 44.699219 282.21875 C 51.449219 289.355469 59.082031 294.84375 67.578125 298.695312 C 76.09375 302.542969 84.808594 304.613281 93.738281 304.914062 C 102.671875 305.207031 111.53125 303.714844 120.332031 300.4375 C 123.960938 299.089844 127.453125 297.433594 130.835938 295.453125 C 135.652344 292.652344 140.210938 289.207031 144.515625 285.136719 C 149.367188 280.546875 153.359375 276 156.492188 271.5 C 157.882812 269.5 159.148438 267.488281 160.269531 265.449219 C 160.328125 265.359375 160.382812 265.261719 160.4375 265.160156 C 161.78125 262.71875 162.929688 260.242188 163.894531 257.742188 C 165.683594 253.074219 166.929688 248.332031 167.617188 243.539062 C 167.789062 242.328125 167.945312 241.105469 168.070312 239.867188 C 168.445312 236.207031 168.625 232.4375 168.589844 228.558594 L 168.972656 201.515625 L 168.972656 201.296875 L 170.125 70.015625 Z M 195.699219 304.949219 L 196.855469 173.667969 L 196.855469 173.449219 L 197.238281 146.40625 C 197.199219 142.527344 197.378906 138.757812 197.753906 135.097656 C 197.878906 133.859375 198.039062 132.636719 198.210938 131.425781 C 198.894531 126.628906 200.140625 121.890625 201.929688 117.222656 C 202.894531 114.722656 204.046875 112.246094 205.390625 109.804688 C 205.441406 109.703125 205.496094 109.605469 205.554688 109.515625 C 206.675781 107.476562 207.941406 105.460938 209.332031 103.464844 C 212.464844 98.964844 216.460938 94.417969 221.3125 89.828125 C 225.617188 85.757812 230.171875 82.3125 234.988281 79.511719 C 238.375 77.53125 241.863281 75.875 245.492188 74.527344 C 254.296875 71.25 263.152344 69.757812 272.089844 70.050781 C 281.015625 70.351562 289.730469 72.421875 298.246094 76.269531 C 306.746094 80.121094 314.375 85.609375 321.125 92.746094 L 321.394531 93.03125 C 328.140625 100.160156 333.179688 108.066406 336.507812 116.71875 C 339.828125 125.382812 341.4375 134.222656 341.324219 143.246094 C 341.210938 152.277344 339.246094 161.160156 335.445312 169.902344 C 331.636719 178.640625 325.878906 186.660156 318.179688 193.945312 C 313.519531 198.355469 308.894531 202 304.324219 204.878906 C 299.753906 207.765625 295.265625 210.023438 290.863281 211.660156 C 287.289062 212.996094 283.675781 213.976562 280.042969 214.632812 L 280.050781 225.160156 L 251.929688 251.757812 L 252.492188 180.15625 L 280.039062 155.210938 L 280.042969 184.179688 C 280.9375 183.957031 281.820312 183.707031 282.691406 183.441406 C 288.621094 181.613281 294.109375 178.3125 299.148438 173.546875 C 303.339844 169.582031 306.453125 165.113281 308.488281 160.125 C 310.519531 155.132812 311.480469 149.992188 311.347656 144.714844 C 311.210938 139.429688 310.078125 134.234375 307.957031 129.128906 C 305.832031 124.019531 302.742188 119.320312 298.691406 115.039062 L 298.425781 114.757812 C 294.375 110.476562 289.832031 107.101562 284.808594 104.652344 C 279.777344 102.199219 274.660156 100.734375 269.441406 100.269531 C 264.875 99.851562 260.332031 100.28125 255.820312 101.535156 C 255.175781 101.71875 254.535156 101.910156 253.894531 102.125 C 248.757812 103.839844 244.042969 106.71875 239.761719 110.765625 C 237.25 113.140625 235.109375 115.554688 233.324219 118.011719 C 231.046875 121.132812 229.355469 124.339844 228.25 127.601562 C 228.210938 127.726562 228.171875 127.851562 228.128906 127.976562 C 226.234375 133.707031 225.050781 140.15625 224.578125 147.300781 L 224.570312 147.304688 L 224.316406 191.507812 L 223.8125 278.355469 L 195.699219 304.949219 " fill-opacity="1" fill-rule="nonzero"/></g><g fill="#000000" fill-opacity="1"><g transform="translate(182.913566, 198.19982)"><g><path d="M 0.234375 0 L 0.171875 0 L 0.171875 -0.484375 L 0.015625 -0.484375 L 0.015625 -0.53125 L 0.40625 -0.53125 L 0.40625 -0.484375 L 0.234375 -0.484375 Z M 0.234375 0 "/></g></g><g transform="translate(183.328483, 198.19982)"><g><path d="M 0.3125 0 L 0.296875 -0.0625 C 0.273438 -0.03125 0.253906 -0.0078125 0.234375 0 C 0.210938 0.0078125 0.1875 0.015625 0.15625 0.015625 C 0.125 0.015625 0.09375 0.00390625 0.0625 -0.015625 C 0.0390625 -0.046875 0.03125 -0.078125 0.03125 -0.109375 C 0.03125 -0.191406 0.0976562 -0.234375 0.234375 -0.234375 L 0.296875 -0.25 L 0.296875 -0.265625 C 0.296875 -0.296875 0.285156 -0.316406 0.265625 -0.328125 C 0.253906 -0.347656 0.234375 -0.359375 0.203125 -0.359375 C 0.171875 -0.359375 0.132812 -0.347656 0.09375 -0.328125 L 0.078125 -0.375 C 0.0976562 -0.382812 0.117188 -0.390625 0.140625 -0.390625 C 0.160156 -0.398438 0.179688 -0.40625 0.203125 -0.40625 C 0.265625 -0.40625 0.300781 -0.394531 0.3125 -0.375 C 0.332031 -0.351562 0.34375 -0.316406 0.34375 -0.265625 L 0.34375 0 Z M 0.171875 -0.046875 C 0.210938 -0.046875 0.242188 -0.0546875 0.265625 -0.078125 C 0.285156 -0.0976562 0.296875 -0.125 0.296875 -0.15625 L 0.296875 -0.203125 L 0.234375 -0.203125 C 0.179688 -0.191406 0.144531 -0.179688 0.125 -0.171875 C 0.101562 -0.160156 0.09375 -0.140625 0.09375 -0.109375 C 0.09375 -0.0859375 0.0976562 -0.0703125 0.109375 -0.0625 C 0.128906 -0.0507812 0.148438 -0.046875 0.171875 -0.046875 Z M 0.171875 -0.046875 "/></g></g><g transform="translate(183.745597, 198.19982)"><g><path d="M 0.578125 0 L 0.578125 -0.25 C 0.578125 -0.28125 0.566406 -0.300781 0.546875 -0.3125 C 0.535156 -0.332031 0.515625 -0.34375 0.484375 -0.34375 C 0.453125 -0.34375 0.425781 -0.332031 0.40625 -0.3125 C 0.394531 -0.300781 0.390625 -0.269531 0.390625 -0.21875 L 0.390625 0 L 0.3125 0 L 0.3125 -0.25 C 0.3125 -0.28125 0.304688 -0.300781 0.296875 -0.3125 C 0.285156 -0.332031 0.265625 -0.34375 0.234375 -0.34375 C 0.191406 -0.34375 0.160156 -0.332031 0.140625 -0.3125 C 0.128906 -0.300781 0.125 -0.265625 0.125 -0.203125 L 0.125 0 L 0.0625 0 L 0.0625 -0.390625 L 0.109375 -0.390625 L 0.125 -0.34375 C 0.132812 -0.363281 0.148438 -0.378906 0.171875 -0.390625 C 0.191406 -0.398438 0.21875 -0.40625 0.25 -0.40625 C 0.3125 -0.40625 0.347656 -0.382812 0.359375 -0.34375 L 0.375 -0.34375 C 0.382812 -0.363281 0.398438 -0.378906 0.421875 -0.390625 C 0.441406 -0.398438 0.46875 -0.40625 0.5 -0.40625 C 0.550781 -0.40625 0.582031 -0.394531 0.59375 -0.375 C 0.613281 -0.351562 0.625 -0.3125 0.625 -0.25 L 0.625 0 Z M 0.578125 0 "/></g></g><g transform="translate(184.443229, 198.19982)"><g><path d="M 0.25 -0.40625 C 0.300781 -0.40625 0.34375 -0.382812 0.375 -0.34375 C 0.40625 -0.3125 0.421875 -0.265625 0.421875 -0.203125 C 0.421875 -0.140625 0.40625 -0.0859375 0.375 -0.046875 C 0.34375 -0.00390625 0.300781 0.015625 0.25 0.015625 C 0.21875 0.015625 0.191406 0.0078125 0.171875 0 C 0.160156 -0.0078125 0.144531 -0.0234375 0.125 -0.046875 L 0.109375 -0.046875 L 0.109375 0 L 0.0625 0 L 0.0625 -0.578125 L 0.125 -0.578125 L 0.125 -0.4375 C 0.125 -0.40625 0.117188 -0.375 0.109375 -0.34375 L 0.125 -0.34375 C 0.144531 -0.382812 0.1875 -0.40625 0.25 -0.40625 Z M 0.25 -0.34375 C 0.195312 -0.34375 0.160156 -0.332031 0.140625 -0.3125 C 0.128906 -0.289062 0.125 -0.253906 0.125 -0.203125 C 0.125 -0.140625 0.132812 -0.0976562 0.15625 -0.078125 C 0.175781 -0.0546875 0.207031 -0.046875 0.25 -0.046875 C 0.28125 -0.046875 0.300781 -0.0546875 0.3125 -0.078125 C 0.332031 -0.109375 0.34375 -0.148438 0.34375 -0.203125 C 0.34375 -0.253906 0.332031 -0.289062 0.3125 -0.3125 C 0.300781 -0.332031 0.28125 -0.34375 0.25 -0.34375 Z M 0.25 -0.34375 "/></g></g><g transform="translate(184.902823, 198.19982)"><g><path d="M 0.3125 0 L 0.296875 -0.0625 C 0.273438 -0.03125 0.253906 -0.0078125 0.234375 0 C 0.210938 0.0078125 0.1875 0.015625 0.15625 0.015625 C 0.125 0.015625 0.09375 0.00390625 0.0625 -0.015625 C 0.0390625 -0.046875 0.03125 -0.078125 0.03125 -0.109375 C 0.03125 -0.191406 0.0976562 -0.234375 0.234375 -0.234375 L 0.296875 -0.25 L 0.296875 -0.265625 C 0.296875 -0.296875 0.285156 -0.316406 0.265625 -0.328125 C 0.253906 -0.347656 0.234375 -0.359375 0.203125 -0.359375 C 0.171875 -0.359375 0.132812 -0.347656 0.09375 -0.328125 L 0.078125 -0.375 C 0.0976562 -0.382812 0.117188 -0.390625 0.140625 -0.390625 C 0.160156 -0.398438 0.179688 -0.40625 0.203125 -0.40625 C 0.265625 -0.40625 0.300781 -0.394531 0.3125 -0.375 C 0.332031 -0.351562 0.34375 -0.316406 0.34375 -0.265625 L 0.34375 0 Z M 0.171875 -0.046875 C 0.210938 -0.046875 0.242188 -0.0546875 0.265625 -0.078125 C 0.285156 -0.0976562 0.296875 -0.125 0.296875 -0.15625 L 0.296875 -0.203125 L 0.234375 -0.203125 C 0.179688 -0.191406 0.144531 -0.179688 0.125 -0.171875 C 0.101562 -0.160156 0.09375 -0.140625 0.09375 -0.109375 C 0.09375 -0.0859375 0.0976562 -0.0703125 0.109375 -0.0625 C 0.128906 -0.0507812 0.148438 -0.046875 0.171875 -0.046875 Z M 0.171875 -0.046875 "/></g></g><g transform="translate(185.319937, 198.19982)"><g><path d="M 0.34375 0 L 0.34375 -0.25 C 0.34375 -0.28125 0.332031 -0.300781 0.3125 -0.3125 C 0.300781 -0.332031 0.28125 -0.34375 0.25 -0.34375 C 0.207031 -0.34375 0.175781 -0.332031 0.15625 -0.3125 C 0.132812 -0.300781 0.125 -0.265625 0.125 -0.203125 L 0.125 0 L 0.0625 0 L 0.0625 -0.578125 L 0.125 -0.578125 L 0.125 -0.390625 C 0.125 -0.367188 0.117188 -0.351562 0.109375 -0.34375 L 0.125 -0.34375 C 0.132812 -0.363281 0.148438 -0.378906 0.171875 -0.390625 C 0.191406 -0.398438 0.21875 -0.40625 0.25 -0.40625 C 0.300781 -0.40625 0.335938 -0.394531 0.359375 -0.375 C 0.378906 -0.351562 0.390625 -0.3125 0.390625 -0.25 L 0.390625 0 Z M 0.34375 0 "/></g></g><g transform="translate(185.780264, 198.19982)"><g><path d="M 0.125 -0.203125 C 0.132812 -0.210938 0.148438 -0.234375 0.171875 -0.265625 L 0.296875 -0.390625 L 0.375 -0.390625 L 0.203125 -0.234375 L 0.390625 0 L 0.3125 0 L 0.171875 -0.1875 L 0.125 -0.15625 L 0.125 0 L 0.0625 0 L 0.0625 -0.578125 L 0.125 -0.578125 L 0.125 -0.265625 C 0.125 -0.253906 0.117188 -0.234375 0.109375 -0.203125 Z M 0.125 -0.203125 "/></g></g><g transform="translate(186.173941, 198.19982)"><g><path d="M 0.3125 0 L 0.296875 -0.0625 C 0.273438 -0.03125 0.253906 -0.0078125 0.234375 0 C 0.210938 0.0078125 0.1875 0.015625 0.15625 0.015625 C 0.125 0.015625 0.09375 0.00390625 0.0625 -0.015625 C 0.0390625 -0.046875 0.03125 -0.078125 0.03125 -0.109375 C 0.03125 -0.191406 0.0976562 -0.234375 0.234375 -0.234375 L 0.296875 -0.25 L 0.296875 -0.265625 C 0.296875 -0.296875 0.285156 -0.316406 0.265625 -0.328125 C 0.253906 -0.347656 0.234375 -0.359375 0.203125 -0.359375 C 0.171875 -0.359375 0.132812 -0.347656 0.09375 -0.328125 L 0.078125 -0.375 C 0.0976562 -0.382812 0.117188 -0.390625 0.140625 -0.390625 C 0.160156 -0.398438 0.179688 -0.40625 0.203125 -0.40625 C 0.265625 -0.40625 0.300781 -0.394531 0.3125 -0.375 C 0.332031 -0.351562 0.34375 -0.316406 0.34375 -0.265625 L 0.34375 0 Z M 0.171875 -0.046875 C 0.210938 -0.046875 0.242188 -0.0546875 0.265625 -0.078125 C 0.285156 -0.0976562 0.296875 -0.125 0.296875 -0.15625 L 0.296875 -0.203125 L 0.234375 -0.203125 C 0.179688 -0.191406 0.144531 -0.179688 0.125 -0.171875 C 0.101562 -0.160156 0.09375 -0.140625 0.09375 -0.109375 C 0.09375 -0.0859375 0.0976562 -0.0703125 0.109375 -0.0625 C 0.128906 -0.0507812 0.148438 -0.046875 0.171875 -0.046875 Z M 0.171875 -0.046875 "/></g></g><g transform="translate(186.591055, 198.19982)"><g><path d="M 0.34375 0 L 0.34375 -0.25 C 0.34375 -0.28125 0.332031 -0.300781 0.3125 -0.3125 C 0.300781 -0.332031 0.28125 -0.34375 0.25 -0.34375 C 0.207031 -0.34375 0.175781 -0.332031 0.15625 -0.3125 C 0.132812 -0.300781 0.125 -0.265625 0.125 -0.203125 L 0.125 0 L 0.0625 0 L 0.0625 -0.390625 L 0.109375 -0.390625 L 0.125 -0.34375 C 0.132812 -0.363281 0.148438 -0.378906 0.171875 -0.390625 C 0.191406 -0.398438 0.21875 -0.40625 0.25 -0.40625 C 0.300781 -0.40625 0.335938 -0.394531 0.359375 -0.375 C 0.378906 -0.351562 0.390625 -0.3125 0.390625 -0.25 L 0.390625 0 Z M 0.34375 0 "/></g></g><g transform="translate(187.051382, 198.19982)"><g/></g><g transform="translate(187.246206, 198.19982)"><g><path d="M 0.328125 -0.109375 C 0.328125 -0.078125 0.3125 -0.046875 0.28125 -0.015625 C 0.25 0.00390625 0.207031 0.015625 0.15625 0.015625 C 0.101562 0.015625 0.0625 0.00390625 0.03125 -0.015625 L 0.03125 -0.0625 C 0.0507812 -0.0625 0.0703125 -0.0546875 0.09375 -0.046875 C 0.125 -0.046875 0.144531 -0.046875 0.15625 -0.046875 C 0.1875 -0.046875 0.210938 -0.046875 0.234375 -0.046875 C 0.253906 -0.0546875 0.265625 -0.078125 0.265625 -0.109375 C 0.265625 -0.117188 0.253906 -0.128906 0.234375 -0.140625 C 0.222656 -0.148438 0.195312 -0.164062 0.15625 -0.1875 C 0.125 -0.195312 0.0976562 -0.207031 0.078125 -0.21875 C 0.0664062 -0.226562 0.0546875 -0.238281 0.046875 -0.25 C 0.0351562 -0.269531 0.03125 -0.285156 0.03125 -0.296875 C 0.03125 -0.328125 0.0390625 -0.351562 0.0625 -0.375 C 0.09375 -0.394531 0.132812 -0.40625 0.1875 -0.40625 C 0.226562 -0.40625 0.269531 -0.398438 0.3125 -0.390625 L 0.296875 -0.328125 C 0.253906 -0.347656 0.21875 -0.359375 0.1875 -0.359375 C 0.15625 -0.359375 0.128906 -0.351562 0.109375 -0.34375 C 0.0976562 -0.332031 0.09375 -0.316406 0.09375 -0.296875 C 0.09375 -0.296875 0.09375 -0.289062 0.09375 -0.28125 C 0.101562 -0.269531 0.113281 -0.257812 0.125 -0.25 C 0.144531 -0.25 0.171875 -0.238281 0.203125 -0.21875 C 0.242188 -0.207031 0.273438 -0.191406 0.296875 -0.171875 C 0.316406 -0.160156 0.328125 -0.140625 0.328125 -0.109375 Z M 0.328125 -0.109375 "/></g></g><g transform="translate(187.603994, 198.19982)"><g><path d="M 0.234375 0.015625 C 0.171875 0.015625 0.125 -0.00390625 0.09375 -0.046875 C 0.0625 -0.0859375 0.046875 -0.140625 0.046875 -0.203125 C 0.046875 -0.265625 0.0625 -0.3125 0.09375 -0.34375 C 0.125 -0.382812 0.164062 -0.40625 0.21875 -0.40625 C 0.269531 -0.40625 0.3125 -0.382812 0.34375 -0.34375 C 0.375 -0.3125 0.390625 -0.269531 0.390625 -0.21875 L 0.390625 -0.1875 L 0.109375 -0.1875 C 0.109375 -0.132812 0.117188 -0.0976562 0.140625 -0.078125 C 0.160156 -0.0546875 0.191406 -0.046875 0.234375 -0.046875 C 0.273438 -0.046875 0.316406 -0.0507812 0.359375 -0.0625 L 0.359375 -0.015625 C 0.335938 -0.00390625 0.316406 0 0.296875 0 C 0.273438 0.0078125 0.253906 0.015625 0.234375 0.015625 Z M 0.21875 -0.359375 C 0.175781 -0.359375 0.144531 -0.347656 0.125 -0.328125 C 0.113281 -0.304688 0.109375 -0.273438 0.109375 -0.234375 L 0.3125 -0.234375 C 0.3125 -0.273438 0.300781 -0.304688 0.28125 -0.328125 C 0.269531 -0.347656 0.25 -0.359375 0.21875 -0.359375 Z M 0.21875 -0.359375 "/></g></g><g transform="translate(188.02477, 198.19982)"><g><path d="M 0.34375 -0.0625 C 0.3125 -0.0078125 0.265625 0.015625 0.203125 0.015625 C 0.148438 0.015625 0.109375 -0.00390625 0.078125 -0.046875 C 0.0546875 -0.0859375 0.046875 -0.140625 0.046875 -0.203125 C 0.046875 -0.265625 0.0546875 -0.3125 0.078125 -0.34375 C 0.109375 -0.382812 0.148438 -0.40625 0.203125 -0.40625 C 0.265625 -0.40625 0.304688 -0.382812 0.328125 -0.34375 L 0.34375 -0.34375 L 0.34375 -0.578125 L 0.390625 -0.578125 L 0.390625 0 L 0.34375 0 Z M 0.203125 -0.046875 C 0.253906 -0.046875 0.289062 -0.0546875 0.3125 -0.078125 C 0.332031 -0.0976562 0.34375 -0.132812 0.34375 -0.1875 L 0.34375 -0.203125 C 0.34375 -0.253906 0.332031 -0.289062 0.3125 -0.3125 C 0.289062 -0.34375 0.253906 -0.359375 0.203125 -0.359375 C 0.171875 -0.359375 0.144531 -0.34375 0.125 -0.3125 C 0.113281 -0.28125 0.109375 -0.242188 0.109375 -0.203125 C 0.109375 -0.140625 0.113281 -0.0976562 0.125 -0.078125 C 0.144531 -0.0546875 0.171875 -0.046875 0.203125 -0.046875 Z M 0.203125 -0.046875 "/></g></g><g transform="translate(188.484364, 198.19982)"><g><path d="M 0.125 0 L 0.0625 0 L 0.0625 -0.390625 L 0.125 -0.390625 Z M 0.0625 -0.515625 C 0.0625 -0.523438 0.0625 -0.53125 0.0625 -0.53125 C 0.0703125 -0.539062 0.0820312 -0.546875 0.09375 -0.546875 C 0.101562 -0.546875 0.109375 -0.539062 0.109375 -0.53125 C 0.117188 -0.53125 0.125 -0.523438 0.125 -0.515625 C 0.125 -0.492188 0.117188 -0.476562 0.109375 -0.46875 C 0.109375 -0.46875 0.101562 -0.46875 0.09375 -0.46875 C 0.0820312 -0.46875 0.0703125 -0.46875 0.0625 -0.46875 C 0.0625 -0.476562 0.0625 -0.492188 0.0625 -0.515625 Z M 0.0625 -0.515625 "/></g></g><g transform="translate(188.674062, 198.19982)"><g><path d="M 0.125 -0.203125 C 0.132812 -0.210938 0.148438 -0.234375 0.171875 -0.265625 L 0.296875 -0.390625 L 0.375 -0.390625 L 0.203125 -0.234375 L 0.390625 0 L 0.3125 0 L 0.171875 -0.1875 L 0.125 -0.15625 L 0.125 0 L 0.0625 0 L 0.0625 -0.578125 L 0.125 -0.578125 L 0.125 -0.265625 C 0.125 -0.253906 0.117188 -0.234375 0.109375 -0.203125 Z M 0.125 -0.203125 "/></g></g><g transform="translate(189.067738, 198.19982)"><g><path d="M 0.125 0 L 0.0625 0 L 0.0625 -0.390625 L 0.125 -0.390625 Z M 0.0625 -0.515625 C 0.0625 -0.523438 0.0625 -0.53125 0.0625 -0.53125 C 0.0703125 -0.539062 0.0820312 -0.546875 0.09375 -0.546875 C 0.101562 -0.546875 0.109375 -0.539062 0.109375 -0.53125 C 0.117188 -0.53125 0.125 -0.523438 0.125 -0.515625 C 0.125 -0.492188 0.117188 -0.476562 0.109375 -0.46875 C 0.109375 -0.46875 0.101562 -0.46875 0.09375 -0.46875 C 0.0820312 -0.46875 0.0703125 -0.46875 0.0625 -0.46875 C 0.0625 -0.476562 0.0625 -0.492188 0.0625 -0.515625 Z M 0.0625 -0.515625 "/></g></g><g transform="translate(189.257435, 198.19982)"><g><path d="M 0.203125 -0.046875 C 0.203125 -0.046875 0.207031 -0.046875 0.21875 -0.046875 C 0.238281 -0.046875 0.25 -0.046875 0.25 -0.046875 L 0.25 0 C 0.238281 0 0.226562 0 0.21875 0 C 0.207031 0.0078125 0.195312 0.015625 0.1875 0.015625 C 0.101562 0.015625 0.0625 -0.0234375 0.0625 -0.109375 L 0.0625 -0.34375 L 0.015625 -0.34375 L 0.015625 -0.390625 L 0.0625 -0.40625 L 0.09375 -0.484375 L 0.125 -0.484375 L 0.125 -0.390625 L 0.25 -0.390625 L 0.25 -0.34375 L 0.125 -0.34375 L 0.125 -0.109375 C 0.125 -0.0859375 0.128906 -0.0703125 0.140625 -0.0625 C 0.148438 -0.0507812 0.171875 -0.046875 0.203125 -0.046875 Z M 0.203125 -0.046875 "/></g></g><g transform="translate(189.522206, 198.19982)"><g/></g><g transform="translate(189.71703, 198.19982)"><g><path d="M 0.203125 -0.046875 C 0.203125 -0.046875 0.207031 -0.046875 0.21875 -0.046875 C 0.238281 -0.046875 0.25 -0.046875 0.25 -0.046875 L 0.25 0 C 0.238281 0 0.226562 0 0.21875 0 C 0.207031 0.0078125 0.195312 0.015625 0.1875 0.015625 C 0.101562 0.015625 0.0625 -0.0234375 0.0625 -0.109375 L 0.0625 -0.34375 L 0.015625 -0.34375 L 0.015625 -0.390625 L 0.0625 -0.40625 L 0.09375 -0.484375 L 0.125 -0.484375 L 0.125 -0.390625 L 0.25 -0.390625 L 0.25 -0.34375 L 0.125 -0.34375 L 0.125 -0.109375 C 0.125 -0.0859375 0.128906 -0.0703125 0.140625 -0.0625 C 0.148438 -0.0507812 0.171875 -0.046875 0.203125 -0.046875 Z M 0.203125 -0.046875 "/></g></g><g transform="translate(189.9818, 198.19982)"><g><path d="M 0.234375 0.015625 C 0.171875 0.015625 0.125 -0.00390625 0.09375 -0.046875 C 0.0625 -0.0859375 0.046875 -0.140625 0.046875 -0.203125 C 0.046875 -0.265625 0.0625 -0.3125 0.09375 -0.34375 C 0.125 -0.382812 0.164062 -0.40625 0.21875 -0.40625 C 0.269531 -0.40625 0.3125 -0.382812 0.34375 -0.34375 C 0.375 -0.3125 0.390625 -0.269531 0.390625 -0.21875 L 0.390625 -0.1875 L 0.109375 -0.1875 C 0.109375 -0.132812 0.117188 -0.0976562 0.140625 -0.078125 C 0.160156 -0.0546875 0.191406 -0.046875 0.234375 -0.046875 C 0.273438 -0.046875 0.316406 -0.0507812 0.359375 -0.0625 L 0.359375 -0.015625 C 0.335938 -0.00390625 0.316406 0 0.296875 0 C 0.273438 0.0078125 0.253906 0.015625 0.234375 0.015625 Z M 0.21875 -0.359375 C 0.175781 -0.359375 0.144531 -0.347656 0.125 -0.328125 C 0.113281 -0.304688 0.109375 -0.273438 0.109375 -0.234375 L 0.3125 -0.234375 C 0.3125 -0.273438 0.300781 -0.304688 0.28125 -0.328125 C 0.269531 -0.347656 0.25 -0.359375 0.21875 -0.359375 Z M 0.21875 -0.359375 "/></g></g><g transform="translate(190.402576, 198.19982)"><g><path d="M 0.125 -0.203125 C 0.132812 -0.210938 0.148438 -0.234375 0.171875 -0.265625 L 0.296875 -0.390625 L 0.375 -0.390625 L 0.203125 -0.234375 L 0.390625 0 L 0.3125 0 L 0.171875 -0.1875 L 0.125 -0.15625 L 0.125 0 L 0.0625 0 L 0.0625 -0.578125 L 0.125 -0.578125 L 0.125 -0.265625 C 0.125 -0.253906 0.117188 -0.234375 0.109375 -0.203125 Z M 0.125 -0.203125 "/></g></g><g transform="translate(190.796253, 198.19982)"><g><path d="M 0.328125 -0.109375 C 0.328125 -0.078125 0.3125 -0.046875 0.28125 -0.015625 C 0.25 0.00390625 0.207031 0.015625 0.15625 0.015625 C 0.101562 0.015625 0.0625 0.00390625 0.03125 -0.015625 L 0.03125 -0.0625 C 0.0507812 -0.0625 0.0703125 -0.0546875 0.09375 -0.046875 C 0.125 -0.046875 0.144531 -0.046875 0.15625 -0.046875 C 0.1875 -0.046875 0.210938 -0.046875 0.234375 -0.046875 C 0.253906 -0.0546875 0.265625 -0.078125 0.265625 -0.109375 C 0.265625 -0.117188 0.253906 -0.128906 0.234375 -0.140625 C 0.222656 -0.148438 0.195312 -0.164062 0.15625 -0.1875 C 0.125 -0.195312 0.0976562 -0.207031 0.078125 -0.21875 C 0.0664062 -0.226562 0.0546875 -0.238281 0.046875 -0.25 C 0.0351562 -0.269531 0.03125 -0.285156 0.03125 -0.296875 C 0.03125 -0.328125 0.0390625 -0.351562 0.0625 -0.375 C 0.09375 -0.394531 0.132812 -0.40625 0.1875 -0.40625 C 0.226562 -0.40625 0.269531 -0.398438 0.3125 -0.390625 L 0.296875 -0.328125 C 0.253906 -0.347656 0.21875 -0.359375 0.1875 -0.359375 C 0.15625 -0.359375 0.128906 -0.351562 0.109375 -0.34375 C 0.0976562 -0.332031 0.09375 -0.316406 0.09375 -0.296875 C 0.09375 -0.296875 0.09375 -0.289062 0.09375 -0.28125 C 0.101562 -0.269531 0.113281 -0.257812 0.125 -0.25 C 0.144531 -0.25 0.171875 -0.238281 0.203125 -0.21875 C 0.242188 -0.207031 0.273438 -0.191406 0.296875 -0.171875 C 0.316406 -0.160156 0.328125 -0.140625 0.328125 -0.109375 Z M 0.328125 -0.109375 "/></g></g><g transform="translate(191.154041, 198.19982)"><g/></g><g transform="translate(191.348865, 198.19982)"><g><path d="M 0.125 0 L 0.0625 0 L 0.0625 -0.390625 L 0.125 -0.390625 Z M 0.0625 -0.515625 C 0.0625 -0.523438 0.0625 -0.53125 0.0625 -0.53125 C 0.0703125 -0.539062 0.0820312 -0.546875 0.09375 -0.546875 C 0.101562 -0.546875 0.109375 -0.539062 0.109375 -0.53125 C 0.117188 -0.53125 0.125 -0.523438 0.125 -0.515625 C 0.125 -0.492188 0.117188 -0.476562 0.109375 -0.46875 C 0.109375 -0.46875 0.101562 -0.46875 0.09375 -0.46875 C 0.0820312 -0.46875 0.0703125 -0.46875 0.0625 -0.46875 C 0.0625 -0.476562 0.0625 -0.492188 0.0625 -0.515625 Z M 0.0625 -0.515625 "/></g></g><g transform="translate(191.538562, 198.19982)"><g><path d="M 0.328125 -0.109375 C 0.328125 -0.078125 0.3125 -0.046875 0.28125 -0.015625 C 0.25 0.00390625 0.207031 0.015625 0.15625 0.015625 C 0.101562 0.015625 0.0625 0.00390625 0.03125 -0.015625 L 0.03125 -0.0625 C 0.0507812 -0.0625 0.0703125 -0.0546875 0.09375 -0.046875 C 0.125 -0.046875 0.144531 -0.046875 0.15625 -0.046875 C 0.1875 -0.046875 0.210938 -0.046875 0.234375 -0.046875 C 0.253906 -0.0546875 0.265625 -0.078125 0.265625 -0.109375 C 0.265625 -0.117188 0.253906 -0.128906 0.234375 -0.140625 C 0.222656 -0.148438 0.195312 -0.164062 0.15625 -0.1875 C 0.125 -0.195312 0.0976562 -0.207031 0.078125 -0.21875 C 0.0664062 -0.226562 0.0546875 -0.238281 0.046875 -0.25 C 0.0351562 -0.269531 0.03125 -0.285156 0.03125 -0.296875 C 0.03125 -0.328125 0.0390625 -0.351562 0.0625 -0.375 C 0.09375 -0.394531 0.132812 -0.40625 0.1875 -0.40625 C 0.226562 -0.40625 0.269531 -0.398438 0.3125 -0.390625 L 0.296875 -0.328125 C 0.253906 -0.347656 0.21875 -0.359375 0.1875 -0.359375 C 0.15625 -0.359375 0.128906 -0.351562 0.109375 -0.34375 C 0.0976562 -0.332031 0.09375 -0.316406 0.09375 -0.296875 C 0.09375 -0.296875 0.09375 -0.289062 0.09375 -0.28125 C 0.101562 -0.269531 0.113281 -0.257812 0.125 -0.25 C 0.144531 -0.25 0.171875 -0.238281 0.203125 -0.21875 C 0.242188 -0.207031 0.273438 -0.191406 0.296875 -0.171875 C 0.316406 -0.160156 0.328125 -0.140625 0.328125 -0.109375 Z M 0.328125 -0.109375 "/></g></g><g transform="translate(191.89635, 198.19982)"><g><path d="M 0.125 0 L 0.0625 0 L 0.0625 -0.390625 L 0.125 -0.390625 Z M 0.0625 -0.515625 C 0.0625 -0.523438 0.0625 -0.53125 0.0625 -0.53125 C 0.0703125 -0.539062 0.0820312 -0.546875 0.09375 -0.546875 C 0.101562 -0.546875 0.109375 -0.539062 0.109375 -0.53125 C 0.117188 -0.53125 0.125 -0.523438 0.125 -0.515625 C 0.125 -0.492188 0.117188 -0.476562 0.109375 -0.46875 C 0.109375 -0.46875 0.101562 -0.46875 0.09375 -0.46875 C 0.0820312 -0.46875 0.0703125 -0.46875 0.0625 -0.46875 C 0.0625 -0.476562 0.0625 -0.492188 0.0625 -0.515625 Z M 0.0625 -0.515625 "/></g></g></g></svg>